<svg width="40" height="41" viewBox="0 0 40 41" fill="none" xmlns="http://www.w3.org/2000/svg">
<path d="M40 20.5C40 25.8043 37.8929 30.8914 34.1421 34.6421C30.3914 38.3929 25.3043 40.5 20 40.5C17.3736 40.5 14.7728 39.9827 12.3463 38.9776C9.91982 37.9725 7.71504 36.4993 5.85786 34.6421C2.10714 30.8914 0 25.8043 0 20.5C0 15.1957 2.10714 10.1086 5.85786 6.35786C9.60859 2.60714 14.6957 0.5 20 0.5C22.6264 0.5 25.2272 1.01732 27.6537 2.02241C30.0802 3.0275 32.285 4.50069 34.1421 6.35786C35.9993 8.21504 37.4725 10.4198 38.4776 12.8463C39.4827 15.2728 40 17.8736 40 20.5ZM8 22.5H24L17 29.5L19.84 32.34L31.68 20.5L19.84 8.66L17 11.5L24 18.5H8V22.5Z" fill="#0C326F"/>
</svg>
